<svg width="122" height="91" viewBox="0 0 122 91" fill="none" xmlns="http://www.w3.org/2000/svg">
<path d="M113.817 23.2293C108.362 16.0832 100.963 10.4256 91.6181 6.25529C82.2714 2.08474 72.0676 0 60.9994 0C49.9327 0 39.7255 2.08538 30.3808 6.25529C21.0347 10.4254 13.6359 16.0832 8.18107 23.2293C2.72712 30.3752 0 38.1786 0 46.6392C0 56.8023 3.878 65.9413 11.6359 74.0584C19.393 82.1762 29.4141 87.7933 41.6982 90.9106C43.1281 91.1135 44.1866 90.9708 44.8749 90.486C45.5634 90.0006 45.9073 89.3927 45.9073 88.6648C45.9073 88.5433 45.8936 87.4507 45.8672 85.3855C45.8399 83.3203 45.8271 81.5187 45.8271 79.9815L44.0002 80.2231C42.8355 80.3862 41.366 80.4554 39.592 80.4358C37.8188 80.4169 35.978 80.2748 34.0721 80.0106C32.1654 79.7488 30.3919 79.1415 28.7503 78.19C27.1095 77.2386 25.9447 75.9932 25.2562 74.4558L24.462 73.0583C23.9326 72.1279 23.0991 71.0943 21.9605 69.9615C20.8218 68.8275 19.6704 68.0588 18.5056 67.654L17.9495 67.3496C17.579 67.1474 17.2351 66.9034 16.9171 66.6203C16.5994 66.3372 16.3616 66.0538 16.2027 65.7701C16.0436 65.4861 16.1755 65.2532 16.5997 65.0705C17.024 64.8878 17.7907 64.7991 18.9031 64.7991L20.4911 64.9805C21.5501 65.1428 22.8602 65.6276 24.4228 66.4378C25.9845 67.2473 27.2684 68.2998 28.2746 69.5948C29.4931 71.2552 30.9611 72.5203 32.6828 73.3909C34.4032 74.2616 36.1377 74.6961 37.8848 74.6961C39.6318 74.6961 41.1407 74.5949 42.412 74.3934C43.682 74.1909 44.8735 73.8866 45.986 73.482C46.4625 70.7683 47.76 68.6835 49.8773 67.2263C46.8595 66.9838 44.1463 66.6186 41.7363 66.133C39.3277 65.6467 36.8387 64.8576 34.271 63.7634C31.7019 62.6707 29.5707 61.3139 27.8768 59.6952C26.1826 58.0756 24.7922 55.9494 23.7075 53.3184C22.6223 50.6864 22.0795 47.6502 22.0795 44.209C22.0795 39.3093 24.1716 35.1398 28.3547 31.6982C26.3951 28.0146 26.5801 23.8851 28.9103 19.3102C30.4459 18.9454 32.7232 19.2191 35.741 20.1297C38.7594 21.0408 40.9693 21.8212 42.3731 22.4682C43.7769 23.1151 44.9016 23.6632 45.749 24.1078C50.6744 23.0555 55.7572 22.5293 60.9989 22.5293C66.2406 22.5293 71.3245 23.0555 76.2502 24.1078L79.2683 22.651C81.3322 21.6789 83.7695 20.7881 86.5742 19.9783C89.3806 19.1689 91.5266 18.946 93.0099 19.3108C95.3918 23.8859 95.604 28.0152 93.6439 31.6989C97.8268 35.1405 99.9196 39.311 99.9196 44.2097C99.9196 47.6508 99.3749 50.6966 98.2914 53.3488C97.2064 56.0015 95.8041 58.1256 94.0837 59.7256C92.3614 61.3254 90.2166 62.6716 87.6489 63.764C85.0806 64.8574 82.5908 65.6465 80.1822 66.1327C77.7725 66.619 75.0593 66.9844 72.0414 67.2273C74.7939 69.0485 76.1704 71.9233 76.1704 75.8503V88.6631C76.1704 89.391 76.5014 89.9987 77.1641 90.4843C77.8259 90.9691 78.8711 91.1118 80.301 90.9086C92.5868 87.7918 102.608 82.1745 110.365 74.0567C118.121 65.9396 122 56.8006 122 46.6375C121.997 38.1779 119.269 30.3752 113.817 23.2293Z" fill="#7490F2"/>
</svg>
