<svg width="231" height="206" viewBox="0 0 231 206" fill="none" xmlns="http://www.w3.org/2000/svg">
<g opacity="0.1">
<path opacity="0.1" d="M137 3.91835C134.86 5.75746 133.904 8.6722 133.069 11.4357C131.197 17.6365 129.447 23.8789 127.818 30.1629C125.444 39.2913 123.288 48.6213 118.941 56.9261C114.594 65.231 108.261 72.1144 101.996 78.9163L79.4292 103.406C72.4559 110.976 65.0169 119.713 65.15 130.229C65.2646 139.353 71.3571 147.446 78.8121 152.157C86.2671 156.867 94.9792 158.795 103.505 160.649C107.834 161.59 112.429 162.514 116.58 160.949C121.567 159.071 124.818 154.041 129.375 151.211C137.553 146.128 147.914 148.988 157.076 151.653C166.238 154.318 177.033 156.339 184.462 150.13C195.243 141.12 190.596 122.966 195.411 109.435C199.98 96.5919 212.615 89.2067 220.907 78.6042C239.432 54.9238 231.333 22.031 205.768 8.75383C197.391 4.41534 189.133 4.63863 180.047 3.95436C168.717 3.10443 146.765 -4.47771 137 3.91835Z" fill="#6C63FF"/>
</g>
<g opacity="0.5">
<path opacity="0.5" d="M67.1938 140.894C67.1938 140.894 29.2993 120.822 45.4939 75.9895C61.6885 31.1569 3.05539 15.606 3.05539 15.606C3.05539 15.606 -8.42993 59.2598 13.1483 88.3303C34.7266 117.401 43.051 165.664 67.1938 140.894Z" fill="#6C63FF"/>
<path opacity="0.5" d="M3.05542 15.606C3.05542 15.606 19.0436 44.6021 27.111 82.3208C35.1785 120.039 48.3131 151.165 66.9988 140.183" stroke="white" stroke-miterlimit="10"/>
</g>
<g opacity="0.5">
<path opacity="0.5" d="M59.0529 148.226C59.0529 148.226 43.8997 125.458 64.0031 103.511C84.1064 81.5645 56.7017 55.536 56.7017 55.536C56.7017 55.536 39.4176 78.1336 43.5442 101.559C47.6708 124.985 39.819 155.989 59.0529 148.226Z" fill="#6C63FF"/>
<path opacity="0.5" d="M56.704 55.536C56.704 55.536 57.851 77.3172 52.5522 101.999C47.2534 126.68 46.3289 148.908 59.1286 147.753" stroke="white" stroke-miterlimit="10"/>
</g>
<g opacity="0.1">
<path opacity="0.1" d="M14.3847 184.118C14.6508 185.83 15.5982 187.133 16.4973 188.329L27.1982 202.528C28.0584 203.671 28.9828 204.86 30.1389 205.169C32.5543 205.839 34.4972 202.593 36.5617 200.694C43.902 193.943 53.933 204.221 62.2299 200.291C65.5491 198.718 68.2375 194.982 71.6209 193.717C80.5784 190.356 88.1687 205.205 97.4175 205.962C100.455 206.202 103.434 204.896 106.336 203.597L125.692 194.924C127.036 194.322 128.403 193.724 129.82 193.688C132.201 193.645 134.42 195.249 136.661 196.403C145.682 201.056 155.7 198.545 164.967 195.021C174.234 191.496 183.568 186.961 193.147 187.712C195.64 187.909 198.934 187.743 199.615 184.32C200.022 182.284 194.541 184.418 193.273 183.321C192.005 182.224 195.023 177.645 193.544 177.451C184.935 176.322 176.163 176.291 167.749 179.131C163.391 180.601 159.104 182.838 154.628 183.297C149.963 183.777 145.322 182.298 140.742 180.953C129.142 177.549 117.344 174.951 105.501 175.479C84.4527 176.44 63.7209 187.306 42.778 184.156C36.5558 183.193 30.5452 181.086 25.0236 177.933C22.1976 176.336 22.3237 181.991 19.4404 183.895C18.5022 184.514 16.0455 178.737 15.3114 179.849C14.8933 180.46 14.5959 181.153 14.4368 181.886C14.2776 182.619 14.2599 183.378 14.3847 184.118Z" fill="#6C63FF"/>
</g>
<path d="M194.895 156.74L161.439 110.882C158.826 98.0084 154.904 98.0084 154.904 98.0084C128.245 94.2534 120.927 89.4251 120.927 89.4251L114.963 86.981L114.465 86.6736C114.442 86.5368 114.417 86.3999 114.394 86.2583C114.371 86.1166 114.348 85.9294 114.33 85.7637C120.844 81.6656 125.544 75.0369 127.405 67.3245C127.453 67.1229 127.497 66.9164 127.543 66.7123C128.823 66.0699 129.903 65.062 130.66 63.8048C133.222 59.4087 130.788 53.8433 130.844 48.7221C130.878 45.4857 131.945 42.314 131.823 39.08C131.722 36.3717 130.795 33.7715 129.784 31.2697C129.293 30.0525 128.752 28.8088 127.811 27.9084C125.318 25.5387 121.28 26.5543 118.078 25.3875C113.936 23.8773 112.006 19.1714 109.612 15.3876C108.694 13.9278 107.024 12.3864 105.517 13.1859C103.749 14.1223 104.228 17.3275 102.441 18.2279C101.358 18.7729 100.035 18.0862 99.2618 17.1355C98.4888 16.1847 98.0461 14.9914 97.2845 14.031C96.6017 13.2001 95.7172 12.5776 94.7243 12.2294C93.7315 11.8811 92.6672 11.8201 91.6439 12.0527C91.2381 12.1214 90.8633 12.3222 90.5727 12.6265C90.0015 13.3228 90.3594 14.36 90.3984 15.2675C90.5337 18.3239 86.9576 20.0214 84.0031 20.3455C81.0486 20.6696 77.5666 20.708 75.798 23.169C74.8621 24.4727 74.6625 26.1702 74.0317 27.6539C72.5683 31.0945 69.0288 32.9792 65.9184 34.9552C62.8079 36.9311 59.6057 39.8123 59.6332 43.5673C59.6608 47.1687 62.6978 50.0858 63.2323 53.6512C63.5167 55.5408 63.074 57.4927 63.4272 59.3727C64.0764 62.8204 67.1548 65.1349 69.9945 67.0916C70.1872 67.2237 70.3822 67.3557 70.5818 67.4806C70.6322 67.6919 70.6827 67.9008 70.7378 68.1096C71.8282 72.1297 73.7032 75.8694 76.2442 79.0928C78.7852 82.3161 81.9372 84.953 85.501 86.8369C85.5469 87.0386 85.5904 87.2427 85.634 87.4515C85.7694 88.095 85.8955 88.7649 86.0079 89.4515L85.9208 89.4755V89.4083L52.8778 98.2269C52.6789 98.152 52.4666 98.1241 52.2562 98.1453C50.9028 98.0301 46.6707 99.557 41.732 120.265L20.5644 159.422C20.5644 159.422 8.28079 171.76 17.6902 182.231C22.4866 187.563 27.8955 188.853 32.0451 188.836C34.4548 188.872 36.8506 188.447 39.1147 187.582C39.1147 187.582 38.945 187.309 38.6835 186.824L41.482 187.181C46.9872 193.587 56.3645 191.337 56.3645 191.337C56.3645 191.337 69.7032 191.179 70.1941 183.878L94.1672 191.575L94.2635 192.946H106.852L106.832 192.072L133.316 183.722C135.381 187.717 140.427 189.693 140.427 189.693C140.427 189.693 155.97 190.377 160.856 187.414C162.909 186.153 165.145 185.252 167.476 184.747L167.612 184.733L167.58 184.766L197.505 181.405C211.098 169.076 194.895 156.74 194.895 156.74ZM44.2644 167.645L43.6061 167.247C44.7824 166.776 45.9919 166.402 47.2235 166.128L53.0453 158.606L54.0523 166.024C50.7122 165.218 47.2036 165.799 44.2644 167.645ZM156.863 167.585C154.695 165.871 152.044 164.963 149.327 165.004L149.557 146.743C151.743 148.205 153.578 149.818 154.122 151.374C155.691 155.936 163.269 163.175 163.269 163.175L159.333 166.56L158.721 167.086C158.556 167.126 158.39 167.167 158.225 167.213L156.863 167.585Z" fill="url(#paint0_linear)"/>
<path d="M38.1422 187.753L44.2507 188.552L47.813 170.171L40.9407 165.907L32.0336 176.032L38.1422 187.753Z" fill="#EFB7B9"/>
<path opacity="0.03" d="M38.1422 187.753L44.2507 188.552L47.813 170.171L40.9407 165.907L32.0336 176.032L38.1422 187.753Z" fill="black"/>
<path d="M120.088 97.4442L105.327 111.298C105.327 111.298 76.8211 117.958 83.9481 108.633C87.9853 103.351 87.4485 95.3338 86.2236 89.3747C85.6757 86.6724 84.9146 84.0223 83.9481 81.4516C83.9481 81.4516 120.604 58.285 115.514 75.8695C114.004 81.0843 113.793 85.1058 114.241 88.179C115.31 95.4683 120.088 97.4442 120.088 97.4442Z" fill="#EFB7B9"/>
<path opacity="0.1" d="M115.514 75.8695C114.004 81.0843 113.793 85.1058 114.241 88.179C110.065 90.8853 105.292 92.4177 100.385 92.628C95.4776 92.8383 90.6014 91.7194 86.2282 89.3795C85.6803 86.6772 84.9191 84.0271 83.9527 81.4564C83.9527 81.4564 120.604 58.285 115.514 75.8695Z" fill="black"/>
<path d="M127.731 62.2802C127.731 68.1807 126.059 73.9488 122.928 78.8551C119.796 83.7614 115.344 87.5857 110.136 89.8443C104.928 92.1029 99.1974 92.6944 93.6682 91.5441C88.1389 90.3939 83.0597 87.5534 79.0726 83.3819C75.0856 79.2104 72.3698 73.8952 71.2686 68.1083C70.1674 62.3214 70.7302 56.3227 72.886 50.8706C75.0418 45.4185 78.6936 40.7579 83.3799 37.478C88.0661 34.1981 93.5763 32.4462 99.2137 32.4438C102.961 32.4308 106.674 33.1936 110.139 34.6883C113.603 36.1829 116.752 38.38 119.402 41.153C122.052 43.926 124.153 47.2202 125.582 50.846C127.011 54.4719 127.742 58.3578 127.731 62.2802Z" fill="#EFB7B9"/>
<path d="M79.6265 100.909V155.518L129.765 151.256L121.368 95.5811L99.2251 109.432L79.6265 100.909Z" fill="#E1E7EF"/>
<path opacity="0.1" d="M106.859 134.474L101.278 117.958H101.507C107.361 111.298 104.815 107.302 104.815 107.302H96.6904C91.5178 111.144 95.1076 116.121 96.3257 117.554L93.8896 134.474H106.859Z" fill="black"/>
<path d="M106.859 133.941L101.278 117.425H101.507C107.361 110.765 104.815 106.769 104.815 106.769H96.6904C91.5178 110.611 95.1076 115.588 96.3257 117.021L93.8896 133.941H106.859Z" fill="#444053"/>
<path opacity="0.1" d="M114.309 89.1226C114.309 89.1226 112.704 96.9112 101.517 107.3C101.517 107.3 104.957 108.501 105.462 118.09L109.662 124.092C109.662 124.092 112.97 111.571 118.824 107.31C124.678 103.048 118.824 91.8597 118.824 91.8597L114.309 89.1226Z" fill="black"/>
<path d="M114.309 88.5944C114.309 88.5944 112.704 96.383 101.517 106.772C101.517 106.772 104.957 107.972 105.462 117.562L109.662 123.564C109.662 123.564 112.97 111.043 118.824 106.781C124.678 102.52 118.824 91.3315 118.824 91.3315L114.309 88.5944Z" fill="#E1E7EF"/>
<path opacity="0.1" d="M99.2137 107.3C99.2137 107.3 94.3966 111.298 94.1351 117.691C93.8736 124.085 91.3366 124.085 91.3366 124.085C91.3366 124.085 84.9734 103.574 82.9388 101.708C80.9042 99.8428 86.609 91.9749 86.609 91.9749C86.609 91.9749 89.8089 103.038 99.2137 107.3Z" fill="black"/>
<path d="M99.2136 106.769C99.2136 106.769 94.3966 110.765 94.1351 117.166C93.8736 123.566 91.3366 123.559 91.3366 123.559C91.3366 123.559 84.9711 103.038 82.9273 101.175C80.8835 99.3122 86.5975 91.4419 86.5975 91.4419C86.5975 91.4419 89.8089 102.505 99.2136 106.769Z" fill="#E1E7EF"/>
<path opacity="0.1" d="M113.986 88.6544L120.349 91.3195C120.349 91.3195 127.476 96.1213 153.436 99.8452C153.436 99.8452 157.253 99.8452 159.799 112.633L192.372 158.185C192.372 158.185 208.151 170.43 194.918 182.694L165.786 186.024C165.786 186.024 182.584 169.242 157.133 168.709L161.836 164.577C161.836 164.577 154.454 157.374 152.929 152.855C151.403 148.337 138.936 143.266 138.936 143.266L140.464 181.626L117.548 185.352L114.245 113.972C114.086 110.606 114.271 107.231 114.796 103.905C115.658 98.491 116.569 89.9149 113.986 88.6544Z" fill="black"/>
<path d="M114.241 88.6544L120.604 91.3195C120.604 91.3195 127.731 96.1213 153.69 99.8452C153.69 99.8452 157.507 99.8452 160.053 112.633L192.626 158.185C192.626 158.185 208.406 170.43 195.172 182.694L166.04 186.024C166.04 186.024 182.838 169.242 157.388 168.709L162.097 164.579C162.097 164.579 154.716 157.376 153.19 152.858C151.665 148.339 139.198 143.268 139.198 143.268L140.725 181.628L117.794 185.352L114.491 113.972C114.332 110.606 114.516 107.231 115.041 103.905C115.913 98.491 116.824 89.9149 114.241 88.6544Z" fill="#997021"/>
<path opacity="0.1" d="M86.7534 91.3171L54.4308 100.119C54.4308 100.119 49.5953 96.9233 43.7414 121.967L23.1266 160.862C23.1266 160.862 11.1642 173.107 20.3281 183.506C29.492 193.904 40.9498 188.817 40.9498 188.817C40.9498 188.817 30.5151 171.77 48.8407 167.506L55.7222 158.45L86.7718 162.178L85.9896 115.293L86.859 109.828C87.7995 103.922 87.7995 97.8933 86.859 91.9869L86.7534 91.3171Z" fill="black"/>
<path d="M86.4988 91.3171L54.1762 100.119C54.1762 100.119 49.3407 96.9233 43.4868 121.967L22.872 160.862C22.872 160.862 10.9004 173.107 20.0758 183.489C29.2512 193.87 40.6906 188.817 40.6906 188.817C40.6906 188.817 30.2559 171.77 48.5815 167.506L55.463 158.45L86.5126 162.178L85.735 115.293L86.5975 109.828C87.538 103.922 87.538 97.8933 86.5975 91.9869L86.4988 91.3171Z" fill="#997021"/>
<path d="M54.6854 117.425L51.63 119.821L97.6974 132.075V127.281L54.6854 117.425Z" fill="#E4E6ED"/>
<path d="M143.765 116.625L146.818 119.024L97.6974 132.075V127.281L143.765 116.625Z" fill="#E4E6ED"/>
<path d="M48.8315 117.425L91.5889 127.814L94.642 192.814L57.2293 180.56L48.8315 117.425Z" fill="#FFDD63"/>
<path d="M148.855 117.425L103.297 128.347L105.841 193.614L148.091 180.027L148.855 117.425Z" fill="#FFDD63"/>
<path d="M90.0612 127.814C90.0612 127.814 97.5254 132.615 105.373 127.814L106.9 194.147H94.6443L90.0612 127.814Z" fill="#FFDD63"/>
<path opacity="0.1" d="M90.0612 127.814C90.0612 127.814 97.5254 132.615 105.373 127.814L106.9 194.147H94.6443L90.0612 127.814Z" fill="black"/>
<path d="M55.7039 116.625V118.491L97.6974 127.281C97.6974 127.281 76.3188 119.021 55.7039 116.625Z" fill="#D8D9E5"/>
<path d="M143.001 115.559V117.425L97.6974 127.281C97.6974 127.281 122.382 117.958 143.001 115.559Z" fill="#D8D9E5"/>
<path d="M156.922 168.589L155.594 168.963C155.594 168.963 146.944 161.04 135.918 173.045C124.891 185.049 139.588 190.925 139.588 190.925C139.588 190.925 154.727 191.604 159.482 188.66C161.529 187.376 163.77 186.467 166.109 185.974C167.54 185.68 168.841 184.912 169.821 183.782C170.711 182.761 171.372 181.545 171.756 180.222C172.139 178.899 172.235 177.504 172.037 176.137C171.779 174.343 171.025 172.668 169.867 171.319C168.709 169.969 167.198 169.005 165.522 168.545C162.701 167.778 159.737 167.793 156.922 168.589Z" fill="#EFB7B9"/>
<path d="M44.7599 169.904C44.7599 169.904 54.94 160.315 67.4117 176.298C79.8834 192.281 57.7385 192.555 57.7385 192.555C57.7385 192.555 45.7669 195.477 41.1953 185.088C36.6236 174.699 44.7599 169.904 44.7599 169.904Z" fill="#EFB7B9"/>
<path opacity="0.1" d="M158 167.938C158 167.938 169.834 171.554 167.297 185.847L174.45 185.03L175.959 177.763L172.906 167.64L167.052 165.239L158 167.938Z" fill="black"/>
<path d="M158.255 167.938C158.255 167.938 170.089 171.554 167.552 185.847L174.704 185.03L176.214 177.763L173.161 167.64L167.307 165.239L158.255 167.938Z" fill="#997021"/>
<path opacity="0.1" d="M127.731 62.2802C127.733 64.6682 127.46 67.0479 126.919 69.3677C125.13 70.2574 123.128 70.5651 121.17 70.2513C117.798 69.7111 114.821 67.6102 112.355 65.1445C109.889 62.6787 107.82 59.8096 105.441 57.2454C103.285 54.9213 100.624 52.7485 97.5323 52.6548C94.7246 52.5684 92.1669 54.2106 89.4602 54.9885C86.625 55.8049 80.9133 53.5768 79.5301 56.093C78.7181 57.5719 79.0048 60.8252 78.5254 62.5755C78.0041 64.4874 77.2704 66.3286 76.3394 68.0616C75.6512 69.3269 74.6396 70.669 73.2518 70.657C72.7105 70.6286 72.1856 70.4532 71.7287 70.148C70.6556 66.0447 70.4331 61.7486 71.0764 57.5478C71.7196 53.3471 73.2136 49.3389 75.4581 45.7921C77.7027 42.2453 80.6459 39.2419 84.0904 36.9833C87.5349 34.7247 91.401 33.2632 95.4294 32.6967C99.4578 32.1303 103.555 32.472 107.447 33.699C111.339 34.926 114.935 37.0099 117.995 39.8109C121.054 42.6119 123.506 46.0652 125.185 49.9393C126.865 53.8134 127.734 58.0187 127.733 62.273L127.731 62.2802Z" fill="black"/>
<path d="M89.4579 54.4604C92.1669 53.6825 94.7337 52.0402 97.5299 52.1267C100.622 52.2203 103.285 54.3931 105.439 56.7172C107.816 59.279 109.885 62.1481 112.353 64.6163C114.821 67.0845 117.796 69.1781 121.168 69.7231C124.54 70.2681 128.336 68.9404 130.087 65.8816C132.58 61.5167 130.213 55.9874 130.265 50.9022C130.3 47.6873 131.337 44.5373 131.22 41.3249C131.121 38.6358 130.22 36.0428 129.236 33.5674C128.756 32.367 128.231 31.1233 127.313 30.2325C124.884 27.8796 120.955 28.888 117.835 27.7284C113.803 26.2278 111.922 21.5532 109.591 17.7957C108.692 16.3552 107.068 14.8162 105.604 15.6085C103.882 16.54 104.35 19.7237 102.609 20.6168C101.553 21.157 100.264 20.4752 99.5118 19.5316C98.7594 18.588 98.3259 17.402 97.5873 16.4488C96.9299 15.6244 96.0688 15.005 95.0979 14.6582C94.127 14.3115 93.0837 14.2506 92.0821 14.4824C91.6852 14.5512 91.3196 14.7505 91.0383 15.0514C90.4832 15.7429 90.8296 16.7729 90.8686 17.6757C91.0016 20.7104 87.5265 22.3959 84.6408 22.7176C81.7551 23.0394 78.3717 23.0778 76.6513 25.5243C75.7338 26.8184 75.5457 28.5039 74.9309 29.978C73.5042 33.397 70.0588 35.2601 67.0286 37.2313C63.9984 39.2024 60.8811 42.0571 60.9086 45.7858C60.9362 49.3704 63.8906 52.2683 64.4136 55.8049C64.6889 57.6824 64.2599 59.6224 64.604 61.4879C65.2348 64.9116 68.2329 67.2093 70.9993 69.1541C71.6874 69.6343 72.4215 70.136 73.2472 70.1432C74.6236 70.1553 75.6535 68.8131 76.3348 67.5478C77.2657 65.8148 77.9994 63.9735 78.5208 62.0617C79.0002 60.3066 78.7135 57.0534 79.5255 55.5792C80.911 53.0486 86.6227 55.2743 89.4579 54.4604Z" fill="#522903"/>
<defs>
<linearGradient id="paint0_linear" x1="108.54" y1="192.946" x2="108.54" y2="11.9086" gradientUnits="userSpaceOnUse">
<stop stop-color="#808080" stop-opacity="0.25"/>
<stop offset="0.54" stop-color="#808080" stop-opacity="0.12"/>
<stop offset="1" stop-color="#808080" stop-opacity="0.1"/>
</linearGradient>
</defs>
</svg>
